<svg width="30" height="30" viewBox="0 0 30 30" fill="none" xmlns="http://www.w3.org/2000/svg">
<path d="M10.0012 15C10.0012 12.2387 12.2392 9.9996 15.0006 9.9996C17.762 9.9996 20.0012 12.2387 20.0012 15C20.0012 17.7613 17.762 20.0004 15.0006 20.0004C12.2392 20.0004 10.0012 17.7613 10.0012 15ZM7.29797 15C7.29797 19.254 10.7464 22.7023 15.0006 22.7023C19.2548 22.7023 22.7032 19.254 22.7032 15C22.7032 10.746 19.2548 7.29768 15.0006 7.29768C10.7464 7.29768 7.29809 10.7458 7.29809 15M21.2082 6.99228C21.2081 7.34829 21.3135 7.69634 21.5112 7.99243C21.7089 8.28852 21.9899 8.51934 22.3188 8.65571C22.6476 8.79208 23.0095 8.82787 23.3588 8.75855C23.708 8.68924 24.0288 8.51793 24.2806 8.2663C24.5325 8.01467 24.704 7.69401 24.7736 7.34487C24.8432 6.99573 24.8077 6.6338 24.6716 6.30484C24.5355 5.97587 24.3049 5.69466 24.0089 5.49675C23.713 5.29885 23.365 5.19314 23.009 5.193H23.0083C22.5311 5.19322 22.0735 5.38284 21.7359 5.7202C21.3984 6.05756 21.2086 6.51508 21.2082 6.99228ZM8.94036 27.2098C7.47786 27.1432 6.68295 26.8996 6.15469 26.6938C5.45434 26.4211 4.95464 26.0964 4.42926 25.5718C3.90388 25.0471 3.57866 24.5479 3.30721 23.8476C3.10128 23.3196 2.85767 22.5245 2.79119 21.062C2.71847 19.4809 2.70395 19.006 2.70395 15.0002C2.70395 10.9945 2.71967 10.5209 2.79119 8.93844C2.85779 7.476 3.1032 6.68244 3.30721 6.15288C3.57986 5.45256 3.9046 4.95288 4.42926 4.42752C4.95392 3.90216 5.45314 3.57696 6.15469 3.30552C6.68271 3.0996 7.47786 2.856 8.94036 2.78952C10.5215 2.7168 10.9965 2.70228 15.0006 2.70228C19.0047 2.70228 19.4801 2.71776 21.0626 2.78976C22.5251 2.85636 23.3187 3.10176 23.8483 3.30576C24.5487 3.5772 25.0484 3.90312 25.5737 4.42776C26.0991 4.9524 26.4231 5.4528 26.6958 6.15312C26.9017 6.68112 27.1453 7.47624 27.2118 8.93868C27.2845 10.5211 27.2991 10.9948 27.2991 15.0005C27.2991 19.0062 27.2845 19.4798 27.2118 21.0623C27.1452 22.5247 26.9004 23.3196 26.6958 23.8478C26.4231 24.5482 26.0984 25.0478 25.5737 25.572C25.0491 26.0962 24.5487 26.4214 23.8483 26.694C23.3203 26.8999 22.5251 27.1435 21.0626 27.21C19.4815 27.2827 19.0065 27.2972 15.0006 27.2972C10.9947 27.2972 10.5211 27.2827 8.94036 27.21M8.81615 0.0908401C7.21925 0.16356 6.12805 0.41676 5.17509 0.78756C4.18877 1.17048 3.35269 1.6842 2.51782 2.51772C1.68295 3.35124 1.17053 4.1874 0.787592 5.17488C0.416777 6.1284 0.163567 7.21896 0.0908437 8.8158C0.0169208 10.4152 0 10.9265 0 15C0 19.0735 0.0169208 19.5848 0.0908437 21.1842C0.163567 22.7812 0.416777 23.8716 0.787592 24.8251C1.17053 25.8114 1.68307 26.6491 2.51782 27.4823C3.35257 28.3154 4.18757 28.8284 5.17509 29.2124C6.12985 29.5832 7.21925 29.8364 8.81615 29.9092C10.4164 29.9819 10.9269 30 15.0006 30C19.0743 30 19.5856 29.9831 21.185 29.9092C22.7821 29.8364 23.8726 29.5832 24.8261 29.2124C25.8124 28.8284 26.6485 28.3158 27.4834 27.4823C28.3183 26.6488 28.8296 25.8114 29.2136 24.8251C29.5844 23.8716 29.8388 22.781 29.9104 21.1842C29.9831 19.5836 30 19.0735 30 15C30 10.9265 29.9831 10.4152 29.9104 8.8158C29.8376 7.21884 29.5844 6.1278 29.2136 5.17488C28.8296 4.1886 28.3169 3.35256 27.4834 2.51772C26.6498 1.68288 25.8124 1.17048 24.8273 0.78756C23.8726 0.41676 22.782 0.16236 21.1862 0.0908401C19.5866 0.0177601 19.0755 0 15.0024 0C10.9293 0 10.417 0.0169201 8.81675 0.0908401" fill="#484848"/>
</svg>
