<svg width="28" height="25" viewBox="0 0 28 25" fill="none" xmlns="http://www.w3.org/2000/svg">
<path fill-rule="evenodd" clip-rule="evenodd" d="M1.92485 10.7623C9.44103 7.23426 14.453 4.90834 16.9607 3.78456C24.1209 0.575968 25.6087 0.0186008 26.5784 0.000196234C26.7917 -0.00385165 27.2686 0.0530967 27.5775 0.32315C27.8383 0.551178 27.9101 0.859211 27.9444 1.07541C27.9788 1.2916 28.0215 1.7841 27.9876 2.16893C27.5995 6.56125 25.9206 17.2203 25.0665 22.1397C24.7051 24.2214 23.9934 24.9193 23.3045 24.9876C21.8072 25.136 20.6703 23.9216 19.2201 22.8974C16.9509 21.2948 15.669 20.2972 13.4663 18.7333C10.9207 16.926 12.5709 15.9327 14.0216 14.3094C14.4013 13.8845 20.9982 7.4198 21.1259 6.83335C21.1419 6.76001 21.1567 6.48661 21.0059 6.34225C20.8552 6.19788 20.6327 6.24725 20.4721 6.28651C20.2445 6.34216 16.6194 8.92363 9.59681 14.0309C8.56784 14.7921 7.63583 15.163 6.80078 15.1436C5.8802 15.1222 4.10939 14.5828 2.79297 14.1218C1.17832 13.5563 -0.104962 13.2574 0.00678326 12.297C0.0649872 11.7968 0.704344 11.2852 1.92485 10.7623Z" fill="#484848"/>
</svg>
