<svg width="34" height="23" viewBox="0 0 34 23" fill="none" xmlns="http://www.w3.org/2000/svg">
<path fill-rule="evenodd" clip-rule="evenodd" d="M33.2199 1.55734C33.4564 0.659738 33.2199 0 32.095 0H28.3754C27.4295 0 26.9938 0.569855 26.7573 1.19842C26.7573 1.19842 24.8656 6.44999 22.1859 9.86125C21.319 10.8487 20.925 11.1626 20.4521 11.1626C20.2156 11.1626 19.8734 10.8487 19.8734 9.95113V1.55734C19.8734 0.479975 19.5989 0 18.8106 0H12.9655C12.3746 0 12.0191 0.499948 12.0191 0.973869C12.0191 1.99525 13.3587 2.2307 13.4969 5.10328V11.3426C13.4969 12.7105 13.2801 12.9587 12.8072 12.9587C11.5462 12.9587 8.47913 7.68321 6.65971 1.64722C6.30316 0.473921 5.94554 0 4.99492 0H1.2753C0.212549 0 0 0.569855 0 1.19842C0 2.32058 1.26122 7.88658 5.87168 15.2478C8.94568 20.2745 13.2759 23 17.2165 23C19.5811 23 19.8734 22.3947 19.8734 21.3522V17.5526C19.8734 16.3421 20.0974 16.1006 20.8458 16.1006C21.3979 16.1006 22.3435 16.4147 24.5505 18.8385C27.0724 21.7108 27.488 23 28.9067 23H32.6264C33.6891 23 34.2205 22.3947 33.9139 21.2002C33.5786 20.0097 32.3745 18.2829 30.7767 16.2353C29.9097 15.068 28.6092 13.8112 28.2154 13.1829C27.6636 12.3749 27.8211 12.016 28.2154 11.2981C28.2154 11.2981 32.747 4.02621 33.2199 1.55734Z" fill="#484848"/>
</svg>
